<svg width="42" height="41" viewBox="0 0 42 41" fill="none" xmlns="http://www.w3.org/2000/svg">
<path d="M20.9974 0C9.40276 0 1.21182e-05 9.41065 1.21182e-05 21.0196C-0.00472501 25.4254 1.37949 29.7212 3.95702 33.3001C6.53455 36.8789 10.175 39.5597 14.364 40.9635C15.414 41.1572 15.7973 40.5082 15.7973 39.9508C15.7973 39.4509 15.7789 38.1294 15.7684 36.376C9.92776 37.6452 8.69401 33.5575 8.69401 33.5575C7.74113 31.1289 6.36301 30.4825 6.36301 30.4825C4.45463 29.1793 6.50476 29.2055 6.50476 29.2055C8.61263 29.3546 9.72038 31.3723 9.72038 31.3723C11.5946 34.5834 14.637 33.6569 15.834 33.1178C16.023 31.7596 16.5664 30.8332 17.1675 30.3072C12.5055 29.776 7.60201 27.9729 7.60201 19.9204C7.60201 17.6253 8.42101 15.749 9.76501 14.2782C9.54713 13.747 8.82788 11.6089 9.96976 8.71715C9.96976 8.71715 11.7338 8.15188 15.7448 10.8709C17.4582 10.4041 19.2263 10.1665 21.0026 10.1643C22.779 10.1679 24.547 10.4063 26.2605 10.8735C30.2689 8.1545 32.0302 8.71977 32.0302 8.71977C33.1747 11.6141 32.4555 13.7496 32.2402 14.2808C33.5869 15.7516 34.398 17.628 34.398 19.923C34.398 27.9964 29.4892 29.7733 24.8115 30.2941C25.5649 30.9431 26.2369 32.2255 26.2369 34.1856C26.2369 36.9962 26.2106 39.2625 26.2106 39.9508C26.2106 40.5134 26.5886 41.1677 27.6544 40.9609C31.8393 39.5537 35.4752 36.8719 38.0492 33.294C40.6231 29.716 42.0051 25.4226 42 21.0196C42 9.41065 32.5972 0 20.9974 0Z" fill="#FDC435"/>
</svg>
