<svg width="49" height="48" viewBox="0 0 49 48" fill="none" xmlns="http://www.w3.org/2000/svg">
<path d="M5.5 7.72175C5.5 6.21837 6.74925 5 8.29062 5H40.7094C42.2507 5 43.5 6.21837 43.5 7.72175V40.2783C43.5 41.7816 42.2507 43 40.7094 43H8.29062C6.74925 43 5.5 41.7816 5.5 40.2783V7.72175ZM17.2396 36.8108V19.6514H11.5373V36.8108H17.2396ZM14.3896 17.3073C16.3775 17.3073 17.6149 15.9915 17.6149 14.3433C17.5792 12.6594 16.3799 11.3793 14.4276 11.3793C12.4754 11.3793 11.2 12.6617 11.2 14.3433C11.2 15.9915 12.4374 17.3073 14.3516 17.3073H14.3896ZM26.0461 36.8108V27.2276C26.0461 26.7146 26.0841 26.2016 26.2361 25.8359C26.647 24.8123 27.5851 23.7506 29.1621 23.7506C31.226 23.7506 32.0501 25.3229 32.0501 27.6314V36.8108H37.7525V26.9688C37.7525 21.6962 34.9405 19.2453 31.188 19.2453C28.1623 19.2453 26.8061 20.9078 26.0461 22.0786V22.138H26.0081C26.0207 22.1182 26.0334 22.0984 26.0461 22.0786V19.6514H20.3461C20.4174 21.2616 20.3461 36.8108 20.3461 36.8108H26.0461Z" fill="#FDC435"/>
</svg>
